/* XPM */
static char *maximize_pressed[] = {
/* columns rows colors chars-per-pixel */
"30 30 23 1 ",
"  c #2B090A",
". c #C9BDBD",
"X c #CABEBE",
"o c #CBC0C0",
"O c #CBC1C1",
"+ c #CCC0C0",
"@ c #CCC1C1",
"# c #CFC4C4",
"$ c #D0C5C5",
"% c #D3C8C8",
"& c #D3C9C9",
"* c #D5CCCC",
"= c #D6CDCD",
"- c #D7CDCD",
"; c #D7CECE",
": c #D8CDCD",
"> c #D9CECE",
", c #DCD3D3",
"< c #DDD3D3",
"1 c #DED5D5",
"2 c #DFD6D6",
"3 c #E4DCDC",
"4 c #E5DDDD",
/* pixels */
"44444444441*#oXXo#*14444444444",
"44444443:o..........o>34444444",
"444444,O..............O,444444",
"44444:..................=44444",
"4444%....................&4444",
"444=......................;444",
"44,........................,44",
"43O........................@34",
"4:..........................>4",
"4o..........................O4",
"1............................1",
"*..........        ..........*",
"#.......... ...... ..........$",
"+.......... ...... ..........o",
"X.......... ...... ..........X",
"X.......... ...... ..........X",
"o.......... ...... ..........o",
"#.......... ...... ..........$",
"*..........        ..........=",
"1............................2",
"4o..........................O4",
"4>..........................>4",
"43@........................@34",
"44,........................<44",
"444;......................-444",
"4444&....................&4444",
"44444:..................=44444",
"444444,@..............@<444444",
"44444443>O..........O>34444444",
"44444444441*$oXXo$=14444444444"
};
