/* XPM */
static char *close_prelight[] = {
/* columns rows colors chars-per-pixel */
"30 30 25 1 ",
"  c #231F20",
". c #242021",
"X c #282324",
"o c #282425",
"O c #2A2526",
"+ c #2C2829",
"@ c #2D2929",
"# c #2C292A",
"$ c #2E292A",
"% c #2F292A",
"& c #2F2A2B",
"* c #312C2D",
"= c #342F2F",
"- c #332F30",
"; c #363031",
": c #373132",
"> c #383233",
", c #393334",
"< c #3B3536",
"1 c #83797A",
"2 c #847A7B",
"3 c #897E7F",
"4 c #C7BABA",
"5 c #C8BABB",
"6 c #F9E8E8",
/* pixels */
"          o&=:,,:=&X          ",
"       .@:,,,,,,,,,,:+.       ",
"      O;,,,,,,,,,,,,,,;O      ",
"     @,,,,,,,,,,,,,,,,,,$     ",
"    *,,,,,,,,,,,,,,,,,,,,*    ",
"   $,,,,,,,,,,,,,,,,,,,,,,$   ",
"  O,,,,,,,,,,,,,,,,,,,,,,,,O  ",
" .;,,,,,,,,,,,,,,,,,,,,,,,,;. ",
" @,,,,,,,,,,,,,,,,,,,,,,,,,,+ ",
" :,,,,,,,,,,,,,,,,,,,,,,,,,,: ",
"o,,,,,,,,,,<,,,,,,<,,,,,,,,,,X",
"&,,,,,,,,,<52,,,,25<,,,,,,,,,%",
"=,,,,,,,,,,163,,163,,,,,,,,,,-",
":,,,,,,,,,,,163163,,,,,,,,,,,:",
">,,,,,,,,,,,,2662,,,,,,,,,,,,>",
">,,,,,,,,,,,,2662,,,,,,,,,,,,>",
":,,,,,,,,,,,163163,,,,,,,,,,,:",
"=,,,,,,,,,,163,,163,,,,,,,,,,-",
"&,,,,,,,,,<42,,,,25<,,,,,,,,,$",
"X,,,,,,,,,,<,,,,,,<,,,,,,,,,,X",
" :,,,,,,,,,,,,,,,,,,,,,,,,,,: ",
" #,,,,,,,,,,,,,,,,,,,,,,,,,,+ ",
" .;,,,,,,,,,,,,,,,,,,,,,,,,;. ",
"  O,,,,,,,,,,,,,,,,,,,,,,,,O  ",
"   $,,,,,,,,,,,,,,,,,,,,,,@   ",
"    *,,,,,,,,,,,,,,,,,,,,*    ",
"     @,,,,,,,,,,,,,,,,,,$     ",
"      O;,,,,,,,,,,,,,,;O      ",
"       .+:,,,,,,,,,,:+.       ",
"          X%-:>>:-$X          "
};
