/* XPM */
static char *close_pressed[] = {
/* columns rows colors chars-per-pixel */
"30 30 32 1 ",
"  c #231F20",
". c #242021",
"X c #2A2627",
"o c #2B2627",
"O c #2B2728",
"+ c #2D2929",
"@ c #2C292A",
"# c #322D2E",
"$ c #332D2E",
"% c #332E2F",
"& c #342F2F",
"* c #332F30",
"= c #352F30",
"- c #343030",
"; c #383233",
": c #383334",
"> c #393334",
", c #3C3637",
"< c #3D3637",
"1 c #3F3A3B",
"2 c #403A3B",
"3 c #403B3C",
"4 c #413B3C",
"5 c #433D3D",
"6 c #443D3E",
"7 c #453F40",
"8 c #8A8080",
"9 c #8B8081",
"0 c #8F8484",
"q c #CABCBD",
"w c #CBBDBD",
"e c #F9E8E8",
/* pixels */
"          o=<4554<=o          ",
"       .$466666666664#.       ",
"      +2666666666666662+      ",
"     $666666666666666666-     ",
"    >66666666666666666666:    ",
"   &6666666666666666666666*   ",
"  +666666666666666666666666+  ",
" .26666666666666666666666661. ",
" $66666666666666666666666666# ",
" 4666666666666666666666666663 ",
"O6666666666766666676666666666o",
"=6666666667w966669w7666666666=",
"<66666666668e0668e06666666666,",
"4666666666668e08e0666666666664",
"56666666666669ee96666666666665",
"56666666666669ee96666666666665",
"4666666666668e08e0666666666664",
"<66666666668e0668e06666666666,",
"=6666666667q966669w7666666666-",
"o6666666666766666676666666666X",
" 4666666666666666666666666663 ",
" #66666666666666666666666666# ",
" .16666666666666666666666661. ",
"  +666666666666666666666666@  ",
"   *6666666666666666666666%   ",
"    :66666666666666666666;    ",
"     $666666666666666666-     ",
"      +1666666666666661@      ",
"       .#366666666663#.       ",
"          o=,4554,-o          "
};
