/* XPM */
static char *maximize_pressed[] = {
/* columns rows colors chars-per-pixel */
"30 30 26 1 ",
"  c #231F20",
". c #242021",
"X c #2A2627",
"o c #2B2627",
"O c #2B2728",
"+ c #2D2929",
"@ c #2C292A",
"# c #322D2E",
"$ c #332D2E",
"% c #332E2F",
"& c #342F2F",
"* c #332F30",
"= c #352F30",
"- c #343030",
"; c #383233",
": c #383334",
"> c #393334",
", c #3C3637",
"< c #3D3637",
"1 c #3F3A3B",
"2 c #403A3B",
"3 c #403B3C",
"4 c #413B3C",
"5 c #433D3D",
"6 c #443D3E",
"7 c #FBEAEA",
/* pixels */
"          o=<4554<=o          ",
"       .$466666666664#.       ",
"      +2666666666666662+      ",
"     $666666666666666666-     ",
"    >66666666666666666666:    ",
"   &6666666666666666666666*   ",
"  +666666666666666666666666+  ",
" .26666666666666666666666661. ",
" $66666666666666666666666666# ",
" 4666666666666666666666666663 ",
"O6666666666666666666666666666o",
"=6666666666777777776666666666=",
"<6666666666766666676666666666,",
"466666666667666666766666666664",
"566666666667666666766666666665",
"566666666667666666766666666665",
"466666666667666666766666666664",
"<6666666666766666676666666666,",
"=6666666666777777776666666666-",
"o6666666666666666666666666666X",
" 4666666666666666666666666663 ",
" #66666666666666666666666666# ",
" .16666666666666666666666661. ",
"  +666666666666666666666666@  ",
"   *6666666666666666666666%   ",
"    :66666666666666666666;    ",
"     $666666666666666666-     ",
"      +1666666666666661@      ",
"       .#366666666663#.       ",
"          o=,4554,-o          "
};
