/* XPM */
static char *top_right_inactive[] = {
/* columns rows colors chars-per-pixel */
"8 38 5 1 ",
"  c None",
". c #2C2727",
"X c #2C2628",
"o c #2C2728",
"O c #2D2828",
/* pixels */
"oooO    ",
"ooooo.  ",
"ooooooO ",
"ooooooo ",
"oooooooX",
"oooooooo",
"oooooooo",
"oooooooo",
"oooooooo",
"oooooooo",
"oooooooo",
"oooooooo",
"oooooooo",
"oooooooo",
"oooooooo",
"oooooooo",
"oooooooo",
"oooooooo",
"oooooooo",
"oooooooo",
"oooooooo",
"oooooooo",
"oooooooo",
"oooooooo",
"oooooooo",
"oooooooo",
"oooooooo",
"oooooooo",
"oooooooo",
"oooooooo",
"oooooooo",
"oooooooo",
"oooooooo",
"oooooooo",
"oooooooo",
"oooooooo",
"oooooooo",
"oooooooo"
};
